# xmcd
#
# Track frame offsets: 
#        150
#        15725
#        31698
#        50398
#        72350
#        90266
#        106254
#        124691
#        138965
#        155061
#        175848
#        192463
#        207911
#        223120
#        241201
#        262322
#
# Disc length: 3711 seconds
#
# Revision: 0
# Processed by: cddbd v1.5.2PL0 Copyright (c) Steve Scherf et al.
# Submitted via: ExactAudioCopy v0.95b4
#
DISCID=e10e7d10
DTITLE=Kenny Chesney - Mixed
DYEAR=2006
DGENRE=Country
TTITLE0=Summertime
TTITLE1=Livin in Fast Foward
TTITLE2=She Thinks My Tractors Sexy
TTITLE3=When The Sun Goes Down
TTITLE4=Young
TTITLE5=No Shoes, No Shirt, No Problem
TTITLE6=I Go Back
TTITLE7=How Forever Feels
TTITLE8=Keg In The Closet
TTITLE9=Guitars And Tiki Bars
TTITLE10=Back Where I Come From
TTITLE11=Don't Happen Twice
TTITLE12=The Good Stuff
TTITLE13=Big Star
TTITLE14=Magic
TTITLE15=Being Drunk's A Lot Loving You
EXTD=
EXTT0=
EXTT1=
EXTT2=
EXTT3=
EXTT4=
EXTT5=
EXTT6=
EXTT7=
EXTT8=
EXTT9=
EXTT10=
EXTT11=
EXTT12=
EXTT13=
EXTT14=
EXTT15=
PLAYORDER=
